<svg width="24" height="25" viewBox="0 0 24 25" fill="none" xmlns="http://www.w3.org/2000/svg">
<path fill-rule="evenodd" clip-rule="evenodd" d="M14 2.75C11.7909 2.75 10 4.54086 10 6.75V8.75H6C3.79086 8.75 2 10.5409 2 12.75V18.75C2 20.9591 3.79086 22.75 6 22.75H10C12.2091 22.75 14 20.9591 14 18.75V16.75H18C20.2091 16.75 22 14.9591 22 12.75V6.75C22 4.54086 20.2091 2.75 18 2.75H14ZM14 14.75H18C19.1046 14.75 20 13.8546 20 12.75V6.75C20 5.64543 19.1046 4.75 18 4.75H14C12.8954 4.75 12 5.64543 12 6.75V9.28513C13.1956 9.97675 14 11.2694 14 12.75V14.75ZM4 12.75C4 11.6454 4.89543 10.75 6 10.75H10C11.1046 10.75 12 11.6454 12 12.75V18.75C12 19.8546 11.1046 20.75 10 20.75H6C4.89543 20.75 4 19.8546 4 18.75V12.75Z" fill="#303030"/>
</svg>
