<svg width="24" height="25" viewBox="0 0 24 25" fill="none" xmlns="http://www.w3.org/2000/svg">
<g clip-path="url(#clip0_233_4969)">
<path d="M4.50508 1.8376C3.7457 2.13291 3.10352 2.52666 2.46133 3.16885C1.81914 3.80635 1.42539 4.45322 1.13008 5.20791C0.844141 5.93916 0.651953 6.77822 0.595703 8.00635C0.539453 9.23447 0.525391 9.62822 0.525391 12.7595C0.525391 15.8907 0.539453 16.2845 0.595703 17.5126C0.651953 18.7407 0.848828 19.5798 1.13008 20.311C1.42539 21.0704 1.81914 21.7126 2.46133 22.3548C3.10352 22.997 3.7457 23.3907 4.50508 23.686C5.23633 23.972 6.07539 24.1642 7.30352 24.2204C8.53164 24.2767 8.92539 24.2907 12.0566 24.2907C15.1879 24.2907 15.5816 24.2767 16.8098 24.2204C18.0379 24.1642 18.877 23.9673 19.6082 23.686C20.3676 23.3907 21.0098 22.997 21.652 22.3548C22.2941 21.7126 22.6879 21.0704 22.9832 20.311C23.2691 19.5798 23.4613 18.7407 23.5176 17.5126C23.5738 16.2845 23.5879 15.8907 23.5879 12.7595C23.5879 9.62822 23.5738 9.23447 23.5176 8.00635C23.4613 6.77822 23.2645 5.93916 22.9832 5.20791C22.6879 4.45322 22.2941 3.80635 21.6566 3.16885C21.0145 2.52666 20.3723 2.13291 19.6129 1.8376C18.8816 1.55166 18.0426 1.35947 16.8145 1.30322C15.5863 1.24697 15.1926 1.23291 12.0613 1.23291C8.93008 1.23291 8.53633 1.24697 7.3082 1.30322C6.07539 1.35479 5.23633 1.55166 4.50508 1.8376ZM16.716 3.3751C17.841 3.42666 18.4504 3.61416 18.8582 3.77354C19.3973 3.98447 19.7816 4.23291 20.1848 4.63603C20.5879 5.03916 20.8363 5.42353 21.0473 5.9626C21.2066 6.37041 21.3941 6.97978 21.4457 8.10478C21.502 9.31885 21.5113 9.68447 21.5113 12.7642C21.5113 15.8438 21.4973 16.2095 21.4457 17.4235C21.3941 18.5485 21.2066 19.1579 21.0473 19.5657C20.8363 20.1048 20.5879 20.4892 20.1848 20.8923C19.7816 21.2954 19.3973 21.5438 18.8582 21.7548C18.4504 21.9142 17.841 22.1017 16.716 22.1532C15.502 22.2095 15.1363 22.2188 12.0566 22.2188C8.97695 22.2188 8.61133 22.2048 7.39727 22.1532C6.27227 22.1017 5.66289 21.9142 5.25508 21.7548C4.71602 21.5438 4.33164 21.2954 3.92852 20.8923C3.52539 20.4892 3.27695 20.1048 3.06602 19.5657C2.90664 19.1579 2.71914 18.5485 2.66758 17.4235C2.61133 16.2095 2.60195 15.8438 2.60195 12.7642C2.60195 9.68447 2.61602 9.31885 2.66758 8.10478C2.71914 6.97978 2.90664 6.37041 3.06602 5.9626C3.27695 5.42353 3.52539 5.03916 3.92852 4.63603C4.33164 4.23291 4.71602 3.98447 5.25508 3.77354C5.66289 3.61416 6.27227 3.42666 7.39727 3.3751C8.61133 3.31885 8.97695 3.30947 12.0566 3.30947C15.1363 3.30947 15.502 3.31885 16.716 3.3751Z" fill="#303030"/>
<path d="M6.13672 12.7641C6.13672 16.0359 8.78984 18.6844 12.057 18.6844C15.3242 18.6844 17.9773 16.0312 17.9773 12.7641C17.9773 9.49687 15.3289 6.84375 12.057 6.84375C8.78516 6.84375 6.13672 9.49219 6.13672 12.7641ZM15.9008 12.7641C15.9008 14.8875 14.1805 16.6078 12.057 16.6078C9.93359 16.6078 8.21328 14.8875 8.21328 12.7641C8.21328 10.6406 9.93359 8.92031 12.057 8.92031C14.1805 8.92031 15.9008 10.6406 15.9008 12.7641Z" fill="#303030"/>
<path d="M18.2158 7.99231C18.9795 7.99231 19.5986 7.3732 19.5986 6.6095C19.5986 5.84579 18.9795 5.22668 18.2158 5.22668C17.4521 5.22668 16.833 5.84579 16.833 6.6095C16.833 7.3732 17.4521 7.99231 18.2158 7.99231Z" fill="#303030"/>
</g>
<defs>
<clipPath id="clip0_233_4969">
<rect width="24" height="24" fill="white" transform="translate(0 0.75)"/>
</clipPath>
</defs>
</svg>
