<svg width="24" height="25" viewBox="0 0 24 25" fill="none" xmlns="http://www.w3.org/2000/svg">
<g clip-path="url(#clip0_233_4967)">
<path d="M22.2283 0.75H1.77167C1.30179 0.75 0.851161 0.936657 0.518909 1.26891C0.186657 1.60116 0 2.05179 0 2.52167V22.9783C0 23.4482 0.186657 23.8988 0.518909 24.2311C0.851161 24.5633 1.30179 24.75 1.77167 24.75H22.2283C22.6982 24.75 23.1488 24.5633 23.4811 24.2311C23.8133 23.8988 24 23.4482 24 22.9783V2.52167C24 2.05179 23.8133 1.60116 23.4811 1.26891C23.1488 0.936657 22.6982 0.75 22.2283 0.75ZM7.15333 21.195H3.545V9.73333H7.15333V21.195ZM5.34667 8.145C4.93736 8.1427 4.53792 8.0192 4.19873 7.79009C3.85955 7.56098 3.59584 7.23653 3.44088 6.85769C3.28591 6.47885 3.24665 6.06259 3.32803 5.66145C3.40941 5.26032 3.6078 4.89228 3.89816 4.60378C4.18851 4.31529 4.55782 4.11927 4.95947 4.04046C5.36112 3.96165 5.77711 4.00359 6.15495 4.16099C6.53279 4.31838 6.85554 4.58417 7.08247 4.92481C7.30939 5.26546 7.43032 5.66569 7.43 6.075C7.43386 6.34903 7.38251 6.62104 7.27901 6.8748C7.17551 7.12857 7.02198 7.3589 6.82757 7.55207C6.63316 7.74523 6.40185 7.89728 6.14742 7.99915C5.893 8.10102 5.62067 8.15062 5.34667 8.145ZM20.4533 21.205H16.8467V14.9433C16.8467 13.0967 16.0617 12.5267 15.0483 12.5267C13.9783 12.5267 12.9283 13.3333 12.9283 14.99V21.205H9.32V9.74167H12.79V11.33H12.8367C13.185 10.625 14.405 9.42 16.2667 9.42C18.28 9.42 20.455 10.615 20.455 14.115L20.4533 21.205Z" fill="#303030"/>
</g>
<defs>
<clipPath id="clip0_233_4967">
<rect width="24" height="24" fill="white" transform="translate(0 0.75)"/>
</clipPath>
</defs>
</svg>
